<?xml version="1.0" encoding="UTF-8" standalone="no"?>
<!DOCTYPE svg PUBLIC "-//W3C//DTD SVG 1.1//EN"
 "http://www.w3.org/Graphics/SVG/1.1/DTD/svg11.dtd">
<!-- Generated by graphviz version 2.43.0 (0)
 -->
<!-- Title: %3 Pages: 1 -->
<svg width="356pt" height="1190pt"
 viewBox="0.00 0.00 356.00 1190.00" xmlns="http://www.w3.org/2000/svg" xmlns:xlink="http://www.w3.org/1999/xlink">
<g id="graph0" class="graph" transform="scale(1 1) rotate(0) translate(4 1186)">
<title>%3</title>
<polygon fill="white" stroke="transparent" points="-4,4 -4,-1186 352,-1186 352,4 -4,4"/>
<g id="clust1" class="cluster">
<title>cluster_board</title>
<polygon fill="aqua" stroke="aqua" points="30,-595 30,-1174 143,-1174 143,-595 30,-595"/>
<text text-anchor="middle" x="86.5" y="-1158.8" font-family="Times,serif" font-size="14.00">Arduino UNO</text>
</g>
<g id="clust2" class="cluster">
<title>cluster_mem_kb</title>
<polygon fill="red" stroke="red" points="8,-8 8,-587 174,-587 174,-8 8,-8"/>
<text text-anchor="middle" x="91" y="-571.8" font-family="Times,serif" font-size="14.00">Membrane Keyboard</text>
</g>
<!-- D2 -->
<g id="node1" class="node">
<title>D2</title>
<ellipse fill="none" stroke="black" cx="108" cy="-1125" rx="27" ry="18"/>
<text text-anchor="middle" x="108" y="-1121.3" font-family="Times,serif" font-size="14.00">D2</text>
</g>
<!-- D3 -->
<g id="node2" class="node">
<title>D3</title>
<ellipse fill="none" stroke="black" cx="108" cy="-1053" rx="27" ry="18"/>
<text text-anchor="middle" x="108" y="-1049.3" font-family="Times,serif" font-size="14.00">D3</text>
</g>
<!-- D2&#45;&#45;D3 -->
<g id="edge1" class="edge">
<title>D2&#45;&#45;D3</title>
<path fill="none" stroke="black" d="M108,-1106.7C108,-1095.85 108,-1081.92 108,-1071.1"/>
</g>
<!-- OUT8 -->
<g id="node16" class="node">
<title>OUT8</title>
<ellipse fill="none" stroke="black" cx="128" cy="-34" rx="37.89" ry="18"/>
<text text-anchor="middle" x="128" y="-30.3" font-family="Times,serif" font-size="14.00">OUT8</text>
</g>
<!-- D2&#45;&#45;OUT8 -->
<g id="edge22" class="edge">
<title>D2&#45;&#45;OUT8</title>
<path fill="none" stroke="black" d="M134.6,-1120.9C197.09,-1111.98 348,-1080.28 348,-982 348,-982 348,-982 348,-177 348,-89.94 224.89,-53.67 162.86,-40.92"/>
</g>
<!-- D4 -->
<g id="node3" class="node">
<title>D4</title>
<ellipse fill="none" stroke="black" cx="108" cy="-981" rx="27" ry="18"/>
<text text-anchor="middle" x="108" y="-977.3" font-family="Times,serif" font-size="14.00">D4</text>
</g>
<!-- D3&#45;&#45;D4 -->
<g id="edge2" class="edge">
<title>D3&#45;&#45;D4</title>
<path fill="none" stroke="black" d="M108,-1034.7C108,-1023.85 108,-1009.92 108,-999.1"/>
</g>
<!-- OUT7 -->
<g id="node15" class="node">
<title>OUT7</title>
<ellipse fill="none" stroke="black" cx="128" cy="-106" rx="37.89" ry="18"/>
<text text-anchor="middle" x="128" y="-102.3" font-family="Times,serif" font-size="14.00">OUT7</text>
</g>
<!-- D3&#45;&#45;OUT7 -->
<g id="edge21" class="edge">
<title>D3&#45;&#45;OUT7</title>
<path fill="none" stroke="black" d="M133.58,-1046.7C187.94,-1033.79 310,-995.31 310,-910 310,-910 310,-910 310,-249 310,-173.66 211.85,-132.39 159.7,-115.79"/>
</g>
<!-- D5 -->
<g id="node4" class="node">
<title>D5</title>
<ellipse fill="none" stroke="black" cx="108" cy="-909" rx="27" ry="18"/>
<text text-anchor="middle" x="108" y="-905.3" font-family="Times,serif" font-size="14.00">D5</text>
</g>
<!-- D4&#45;&#45;D5 -->
<g id="edge3" class="edge">
<title>D4&#45;&#45;D5</title>
<path fill="none" stroke="black" d="M108,-962.7C108,-951.85 108,-937.92 108,-927.1"/>
</g>
<!-- OUT6 -->
<g id="node14" class="node">
<title>OUT6</title>
<ellipse fill="none" stroke="black" cx="128" cy="-178" rx="37.89" ry="18"/>
<text text-anchor="middle" x="128" y="-174.3" font-family="Times,serif" font-size="14.00">OUT6</text>
</g>
<!-- D4&#45;&#45;OUT6 -->
<g id="edge20" class="edge">
<title>D4&#45;&#45;OUT6</title>
<path fill="none" stroke="black" d="M131.85,-972.03C177.33,-955.16 272,-911.25 272,-838 272,-838 272,-838 272,-321 272,-256.05 196.8,-210.81 155.09,-190.72"/>
</g>
<!-- D6 -->
<g id="node5" class="node">
<title>D6</title>
<ellipse fill="none" stroke="black" cx="108" cy="-837" rx="27" ry="18"/>
<text text-anchor="middle" x="108" y="-833.3" font-family="Times,serif" font-size="14.00">D6</text>
</g>
<!-- D5&#45;&#45;D6 -->
<g id="edge4" class="edge">
<title>D5&#45;&#45;D6</title>
<path fill="none" stroke="black" d="M108,-890.7C108,-879.85 108,-865.92 108,-855.1"/>
</g>
<!-- OUT5 -->
<g id="node13" class="node">
<title>OUT5</title>
<ellipse fill="none" stroke="black" cx="128" cy="-250" rx="37.89" ry="18"/>
<text text-anchor="middle" x="128" y="-246.3" font-family="Times,serif" font-size="14.00">OUT5</text>
</g>
<!-- D5&#45;&#45;OUT5 -->
<g id="edge19" class="edge">
<title>D5&#45;&#45;OUT5</title>
<path fill="none" stroke="black" d="M128.52,-897.2C164.23,-876.76 234,-828.79 234,-766 234,-766 234,-766 234,-393 234,-336.55 179.54,-288.07 148.69,-265.13"/>
</g>
<!-- D7 -->
<g id="node6" class="node">
<title>D7</title>
<ellipse fill="none" stroke="black" cx="108" cy="-765" rx="27" ry="18"/>
<text text-anchor="middle" x="108" y="-761.3" font-family="Times,serif" font-size="14.00">D7</text>
</g>
<!-- D6&#45;&#45;D7 -->
<g id="edge5" class="edge">
<title>D6&#45;&#45;D7</title>
<path fill="none" stroke="black" d="M108,-818.7C108,-807.85 108,-793.92 108,-783.1"/>
</g>
<!-- OUT4 -->
<g id="node12" class="node">
<title>OUT4</title>
<ellipse fill="none" stroke="black" cx="128" cy="-322" rx="37.89" ry="18"/>
<text text-anchor="middle" x="128" y="-318.3" font-family="Times,serif" font-size="14.00">OUT4</text>
</g>
<!-- D6&#45;&#45;OUT4 -->
<g id="edge18" class="edge">
<title>D6&#45;&#45;OUT4</title>
<path fill="none" stroke="black" d="M124.14,-822.06C149.55,-798.46 196,-747.95 196,-694 196,-694 196,-694 196,-465 196,-424.36 193.72,-412.08 175,-376 167.52,-361.59 155.26,-347.95 145.14,-338.12"/>
</g>
<!-- D8 -->
<g id="node7" class="node">
<title>D8</title>
<ellipse fill="none" stroke="black" cx="103" cy="-693" rx="27" ry="18"/>
<text text-anchor="middle" x="103" y="-689.3" font-family="Times,serif" font-size="14.00">D8</text>
</g>
<!-- D7&#45;&#45;D8 -->
<g id="edge6" class="edge">
<title>D7&#45;&#45;D8</title>
<path fill="none" stroke="black" d="M106.76,-746.7C105.99,-735.85 104.99,-721.92 104.22,-711.1"/>
</g>
<!-- OUT3 -->
<g id="node11" class="node">
<title>OUT3</title>
<ellipse fill="none" stroke="black" cx="128" cy="-394" rx="37.89" ry="18"/>
<text text-anchor="middle" x="128" y="-390.3" font-family="Times,serif" font-size="14.00">OUT3</text>
</g>
<!-- D7&#45;&#45;OUT3 -->
<g id="edge17" class="edge">
<title>D7&#45;&#45;OUT3</title>
<path fill="none" stroke="black" d="M118.89,-748.44C125.59,-738.22 133.84,-724.32 139,-711 153.62,-673.29 158,-662.45 158,-622 158,-622 158,-622 158,-537 158,-490.89 142.67,-438.14 133.93,-411.81"/>
</g>
<!-- D9 -->
<g id="node8" class="node">
<title>D9</title>
<ellipse fill="none" stroke="black" cx="65" cy="-621" rx="27" ry="18"/>
<text text-anchor="middle" x="65" y="-617.3" font-family="Times,serif" font-size="14.00">D9</text>
</g>
<!-- D8&#45;&#45;D9 -->
<g id="edge7" class="edge">
<title>D8&#45;&#45;D9</title>
<path fill="none" stroke="black" d="M94.19,-675.76C88.05,-664.46 79.89,-649.44 73.77,-638.15"/>
</g>
<!-- OUT2 -->
<g id="node10" class="node">
<title>OUT2</title>
<ellipse fill="none" stroke="black" cx="92" cy="-466" rx="37.89" ry="18"/>
<text text-anchor="middle" x="92" y="-462.3" font-family="Times,serif" font-size="14.00">OUT2</text>
</g>
<!-- D8&#45;&#45;OUT2 -->
<g id="edge16" class="edge">
<title>D8&#45;&#45;OUT2</title>
<path fill="none" stroke="black" d="M103.69,-674.87C104.73,-643.88 106.1,-576.51 101,-520 99.91,-507.92 97.61,-494.44 95.6,-484.1"/>
</g>
<!-- OUT1 -->
<g id="node9" class="node">
<title>OUT1</title>
<ellipse fill="none" stroke="black" cx="54" cy="-538" rx="37.89" ry="18"/>
<text text-anchor="middle" x="54" y="-534.3" font-family="Times,serif" font-size="14.00">OUT1</text>
</g>
<!-- D9&#45;&#45;OUT1 -->
<g id="edge15" class="edge">
<title>D9&#45;&#45;OUT1</title>
<path fill="none" stroke="black" d="M62.67,-602.82C60.8,-589.08 58.2,-569.89 56.33,-556.15"/>
</g>
<!-- OUT1&#45;&#45;OUT2 -->
<g id="edge8" class="edge">
<title>OUT1&#45;&#45;OUT2</title>
<path fill="none" stroke="black" d="M63.01,-520.41C68.98,-509.41 76.79,-495.03 82.8,-483.96"/>
</g>
<!-- OUT2&#45;&#45;OUT3 -->
<g id="edge9" class="edge">
<title>OUT2&#45;&#45;OUT3</title>
<path fill="none" stroke="black" d="M100.53,-448.41C106.19,-437.41 113.59,-423.03 119.28,-411.96"/>
</g>
<!-- OUT3&#45;&#45;OUT4 -->
<g id="edge10" class="edge">
<title>OUT3&#45;&#45;OUT4</title>
<path fill="none" stroke="black" d="M128,-375.7C128,-364.85 128,-350.92 128,-340.1"/>
</g>
<!-- OUT4&#45;&#45;OUT5 -->
<g id="edge11" class="edge">
<title>OUT4&#45;&#45;OUT5</title>
<path fill="none" stroke="black" d="M128,-303.7C128,-292.85 128,-278.92 128,-268.1"/>
</g>
<!-- OUT5&#45;&#45;OUT6 -->
<g id="edge12" class="edge">
<title>OUT5&#45;&#45;OUT6</title>
<path fill="none" stroke="black" d="M128,-231.7C128,-220.85 128,-206.92 128,-196.1"/>
</g>
<!-- OUT6&#45;&#45;OUT7 -->
<g id="edge13" class="edge">
<title>OUT6&#45;&#45;OUT7</title>
<path fill="none" stroke="black" d="M128,-159.7C128,-148.85 128,-134.92 128,-124.1"/>
</g>
<!-- OUT7&#45;&#45;OUT8 -->
<g id="edge14" class="edge">
<title>OUT7&#45;&#45;OUT8</title>
<path fill="none" stroke="black" d="M128,-87.7C128,-76.85 128,-62.92 128,-52.1"/>
</g>
</g>
</svg>
