<?xml version="1.0" encoding="UTF-8" standalone="no"?>
<!DOCTYPE svg PUBLIC "-//W3C//DTD SVG 1.1//EN"
 "http://www.w3.org/Graphics/SVG/1.1/DTD/svg11.dtd">
<!-- Generated by graphviz version 2.43.0 (0)
 -->
<!-- Title: %3 Pages: 1 -->
<svg width="578pt" height="1193pt"
 viewBox="0.00 0.00 578.00 1193.00" xmlns="http://www.w3.org/2000/svg" xmlns:xlink="http://www.w3.org/1999/xlink">
<g id="graph0" class="graph" transform="scale(1 1) rotate(0) translate(4 1189)">
<title>%3</title>
<polygon fill="white" stroke="transparent" points="-4,4 -4,-1189 574,-1189 574,4 -4,4"/>
<g id="clust1" class="cluster">
<title>cluster_arduino</title>
<polygon fill="aquamarine" stroke="aquamarine" points="36,-595 36,-1177 272,-1177 272,-595 36,-595"/>
<text text-anchor="middle" x="154" y="-1161.8" font-family="Times,serif" font-size="14.00">Arduino UNO</text>
</g>
<g id="clust2" class="cluster">
<title>cluster_keypad</title>
<polygon fill="red" stroke="red" points="20,-8 20,-587 171,-587 171,-8 20,-8"/>
<text text-anchor="middle" x="95.5" y="-571.8" font-family="Times,serif" font-size="14.00">Membrane Keypad</text>
</g>
<g id="clust3" class="cluster">
<title>cluster_lcd</title>
<polygon fill="green" stroke="green" points="304,-595 304,-886 436,-886 436,-595 304,-595"/>
<text text-anchor="middle" x="370" y="-870.8" font-family="Times,serif" font-size="14.00">LCD Display</text>
</g>
<!-- D4 -->
<g id="node1" class="node">
<title>D4</title>
<ellipse fill="none" stroke="black" cx="237" cy="-1128" rx="27" ry="18"/>
<text text-anchor="middle" x="237" y="-1124.3" font-family="Times,serif" font-size="14.00">D4</text>
</g>
<!-- D5 -->
<g id="node2" class="node">
<title>D5</title>
<ellipse fill="none" stroke="black" cx="76" cy="-1056" rx="27" ry="18"/>
<text text-anchor="middle" x="76" y="-1052.3" font-family="Times,serif" font-size="14.00">D5</text>
</g>
<!-- D4&#45;&#45;D5 -->
<g id="edge1" class="edge">
<title>D4&#45;&#45;D5</title>
<path fill="none" stroke="black" d="M215.75,-1116.79C210.91,-1114.52 205.79,-1112.15 201,-1110 165.5,-1094.1 123.84,-1076.68 98.7,-1066.3"/>
</g>
<!-- OUT8 -->
<g id="node20" class="node">
<title>OUT8</title>
<ellipse fill="none" stroke="black" cx="125" cy="-34" rx="37.89" ry="18"/>
<text text-anchor="middle" x="125" y="-30.3" font-family="Times,serif" font-size="14.00">OUT8</text>
</g>
<!-- D4&#45;&#45;OUT8 -->
<g id="edge28" class="edge">
<title>D4&#45;&#45;OUT8</title>
<path fill="none" stroke="purple" d="M264.25,-1127.67C343.78,-1128.09 570,-1117.61 570,-985 570,-985 570,-985 570,-177 570,-91.44 267.7,-50.46 161.42,-38.69"/>
</g>
<!-- D6 -->
<g id="node3" class="node">
<title>D6</title>
<ellipse fill="none" stroke="black" cx="76" cy="-984" rx="27" ry="18"/>
<text text-anchor="middle" x="76" y="-980.3" font-family="Times,serif" font-size="14.00">D6</text>
</g>
<!-- D5&#45;&#45;D6 -->
<g id="edge2" class="edge">
<title>D5&#45;&#45;D6</title>
<path fill="none" stroke="black" d="M76,-1037.7C76,-1026.85 76,-1012.92 76,-1002.1"/>
</g>
<!-- OUT7 -->
<g id="node19" class="node">
<title>OUT7</title>
<ellipse fill="none" stroke="black" cx="125" cy="-106" rx="37.89" ry="18"/>
<text text-anchor="middle" x="125" y="-102.3" font-family="Times,serif" font-size="14.00">OUT7</text>
</g>
<!-- D5&#45;&#45;OUT7 -->
<g id="edge27" class="edge">
<title>D5&#45;&#45;OUT7</title>
<path fill="none" stroke="purple" d="M61.7,-1040.23C39.69,-1015.85 0,-964.73 0,-913 0,-913 0,-913 0,-249 0,-188.57 64.58,-141.65 100.9,-120.04"/>
</g>
<!-- D7 -->
<g id="node4" class="node">
<title>D7</title>
<ellipse fill="none" stroke="black" cx="71" cy="-912" rx="27" ry="18"/>
<text text-anchor="middle" x="71" y="-908.3" font-family="Times,serif" font-size="14.00">D7</text>
</g>
<!-- D6&#45;&#45;D7 -->
<g id="edge3" class="edge">
<title>D6&#45;&#45;D7</title>
<path fill="none" stroke="black" d="M74.76,-965.7C73.99,-954.85 72.99,-940.92 72.22,-930.1"/>
</g>
<!-- OUT6 -->
<g id="node18" class="node">
<title>OUT6</title>
<ellipse fill="none" stroke="black" cx="125" cy="-178" rx="37.89" ry="18"/>
<text text-anchor="middle" x="125" y="-174.3" font-family="Times,serif" font-size="14.00">OUT6</text>
</g>
<!-- D6&#45;&#45;OUT6 -->
<g id="edge26" class="edge">
<title>D6&#45;&#45;OUT6</title>
<path fill="none" stroke="purple" d="M98.75,-973.98C106.1,-971.23 114.34,-968.32 122,-966 188.03,-946.01 228.46,-982.69 273,-930 320.17,-874.21 284,-839.05 284,-766 284,-766 284,-766 284,-321 284,-252.16 200.07,-208.39 154.16,-189.6"/>
</g>
<!-- D8 -->
<g id="node5" class="node">
<title>D8</title>
<ellipse fill="none" stroke="black" cx="133" cy="-837" rx="27" ry="18"/>
<text text-anchor="middle" x="133" y="-833.3" font-family="Times,serif" font-size="14.00">D8</text>
</g>
<!-- D7&#45;&#45;D8 -->
<g id="edge4" class="edge">
<title>D7&#45;&#45;D8</title>
<path fill="none" stroke="black" d="M83.85,-895.87C94.49,-883.35 109.53,-865.63 120.17,-853.11"/>
</g>
<!-- OUT5 -->
<g id="node17" class="node">
<title>OUT5</title>
<ellipse fill="none" stroke="black" cx="125" cy="-250" rx="37.89" ry="18"/>
<text text-anchor="middle" x="125" y="-246.3" font-family="Times,serif" font-size="14.00">OUT5</text>
</g>
<!-- D7&#45;&#45;OUT5 -->
<g id="edge25" class="edge">
<title>D7&#45;&#45;OUT5</title>
<path fill="none" stroke="purple" d="M91.51,-899.97C96.46,-897.68 101.83,-895.51 107,-894 133.67,-886.19 145.52,-900.86 169,-886 222.54,-852.11 246,-829.37 246,-766 246,-766 246,-766 246,-393 246,-333.4 183.49,-286.12 148.33,-264.24"/>
</g>
<!-- D9 -->
<g id="node6" class="node">
<title>D9</title>
<ellipse fill="none" stroke="black" cx="133" cy="-765" rx="27" ry="18"/>
<text text-anchor="middle" x="133" y="-761.3" font-family="Times,serif" font-size="14.00">D9</text>
</g>
<!-- D8&#45;&#45;D9 -->
<g id="edge5" class="edge">
<title>D8&#45;&#45;D9</title>
<path fill="none" stroke="black" d="M133,-818.7C133,-807.85 133,-793.92 133,-783.1"/>
</g>
<!-- OUT4 -->
<g id="node16" class="node">
<title>OUT4</title>
<ellipse fill="none" stroke="black" cx="125" cy="-322" rx="37.89" ry="18"/>
<text text-anchor="middle" x="125" y="-318.3" font-family="Times,serif" font-size="14.00">OUT4</text>
</g>
<!-- D8&#45;&#45;OUT4 -->
<g id="edge24" class="edge">
<title>D8&#45;&#45;OUT4</title>
<path fill="none" stroke="purple" d="M147.11,-821.19C168.83,-796.77 208,-745.58 208,-694 208,-694 208,-694 208,-465 208,-412.74 165.59,-362.64 141.4,-338.31"/>
</g>
<!-- D10 -->
<g id="node7" class="node">
<title>D10</title>
<ellipse fill="none" stroke="black" cx="112" cy="-693" rx="29.8" ry="18"/>
<text text-anchor="middle" x="112" y="-689.3" font-family="Times,serif" font-size="14.00">D10</text>
</g>
<!-- D9&#45;&#45;D10 -->
<g id="edge6" class="edge">
<title>D9&#45;&#45;D10</title>
<path fill="none" stroke="black" d="M127.92,-747.05C124.61,-736.05 120.33,-721.76 117.04,-710.79"/>
</g>
<!-- OUT3 -->
<g id="node15" class="node">
<title>OUT3</title>
<ellipse fill="none" stroke="black" cx="125" cy="-394" rx="37.89" ry="18"/>
<text text-anchor="middle" x="125" y="-390.3" font-family="Times,serif" font-size="14.00">OUT3</text>
</g>
<!-- D9&#45;&#45;OUT3 -->
<g id="edge23" class="edge">
<title>D9&#45;&#45;OUT3</title>
<path fill="none" stroke="purple" d="M140.31,-747.32C151.09,-721.15 170,-668.62 170,-622 170,-622 170,-622 170,-537 170,-496.55 164.23,-486.22 151,-448 146.64,-435.41 140.01,-421.94 134.53,-411.73"/>
</g>
<!-- D11 -->
<g id="node8" class="node">
<title>D11</title>
<ellipse fill="none" stroke="black" cx="74" cy="-621" rx="29.8" ry="18"/>
<text text-anchor="middle" x="74" y="-617.3" font-family="Times,serif" font-size="14.00">D11</text>
</g>
<!-- D10&#45;&#45;D11 -->
<g id="edge7" class="edge">
<title>D10&#45;&#45;D11</title>
<path fill="none" stroke="black" d="M103.19,-675.76C97.14,-664.62 89.13,-649.87 83.03,-638.63"/>
</g>
<!-- OUT2 -->
<g id="node14" class="node">
<title>OUT2</title>
<ellipse fill="none" stroke="black" cx="104" cy="-466" rx="37.89" ry="18"/>
<text text-anchor="middle" x="104" y="-462.3" font-family="Times,serif" font-size="14.00">OUT2</text>
</g>
<!-- D10&#45;&#45;OUT2 -->
<g id="edge22" class="edge">
<title>D10&#45;&#45;OUT2</title>
<path fill="none" stroke="purple" d="M113.12,-674.87C114.91,-643.9 117.77,-576.54 113,-520 111.98,-507.91 109.68,-494.43 107.65,-484.09"/>
</g>
<!-- OUT1 -->
<g id="node13" class="node">
<title>OUT1</title>
<ellipse fill="none" stroke="black" cx="66" cy="-538" rx="37.89" ry="18"/>
<text text-anchor="middle" x="66" y="-534.3" font-family="Times,serif" font-size="14.00">OUT1</text>
</g>
<!-- D11&#45;&#45;OUT1 -->
<g id="edge21" class="edge">
<title>D11&#45;&#45;OUT1</title>
<path fill="none" stroke="purple" d="M72.3,-602.82C70.95,-589.08 69.05,-569.89 67.69,-556.15"/>
</g>
<!-- A4 -->
<g id="node9" class="node">
<title>A4</title>
<ellipse fill="none" stroke="black" cx="165" cy="-1128" rx="27" ry="18"/>
<text text-anchor="middle" x="165" y="-1124.3" font-family="Times,serif" font-size="14.00">A4</text>
</g>
<!-- A5 -->
<g id="node10" class="node">
<title>A5</title>
<ellipse fill="none" stroke="black" cx="195" cy="-1056" rx="27" ry="18"/>
<text text-anchor="middle" x="195" y="-1052.3" font-family="Times,serif" font-size="14.00">A5</text>
</g>
<!-- A4&#45;&#45;A5 -->
<g id="edge8" class="edge">
<title>A4&#45;&#45;A5</title>
<path fill="none" stroke="black" d="M172.11,-1110.41C176.89,-1099.25 183.17,-1084.6 187.94,-1073.47"/>
</g>
<!-- SDA -->
<g id="node23" class="node">
<title>SDA</title>
<ellipse fill="none" stroke="black" cx="397" cy="-693" rx="30.59" ry="18"/>
<text text-anchor="middle" x="397" y="-689.3" font-family="Times,serif" font-size="14.00">SDA</text>
</g>
<!-- A4&#45;&#45;SDA -->
<g id="edge31" class="edge">
<title>A4&#45;&#45;SDA</title>
<path fill="none" stroke="purple" d="M186.19,-1116.65C191.03,-1114.38 196.16,-1112.05 201,-1110 345.77,-1048.6 532,-1142.25 532,-985 532,-985 532,-985 532,-836 532,-771.88 458.81,-725.2 420.21,-705.04"/>
</g>
<!-- Arduino_5V -->
<g id="node11" class="node">
<title>Arduino_5V</title>
<ellipse fill="none" stroke="black" cx="195" cy="-984" rx="63.89" ry="18"/>
<text text-anchor="middle" x="195" y="-980.3" font-family="Times,serif" font-size="14.00">Arduino_5V</text>
</g>
<!-- A5&#45;&#45;Arduino_5V -->
<g id="edge9" class="edge">
<title>A5&#45;&#45;Arduino_5V</title>
<path fill="none" stroke="black" d="M195,-1037.7C195,-1026.85 195,-1012.92 195,-1002.1"/>
</g>
<!-- SCL -->
<g id="node24" class="node">
<title>SCL</title>
<ellipse fill="none" stroke="black" cx="397" cy="-621" rx="29.8" ry="18"/>
<text text-anchor="middle" x="397" y="-617.3" font-family="Times,serif" font-size="14.00">SCL</text>
</g>
<!-- A5&#45;&#45;SCL -->
<g id="edge32" class="edge">
<title>A5&#45;&#45;SCL</title>
<path fill="none" stroke="purple" d="M222.06,-1054.52C295.66,-1051.66 494,-1032.82 494,-913 494,-913 494,-913 494,-764 494,-708.47 442.79,-658.67 414.79,-635.59"/>
</g>
<!-- Arduino_GND -->
<g id="node12" class="node">
<title>Arduino_GND</title>
<ellipse fill="none" stroke="black" cx="190" cy="-912" rx="74.19" ry="18"/>
<text text-anchor="middle" x="190" y="-908.3" font-family="Times,serif" font-size="14.00">Arduino_GND</text>
</g>
<!-- Arduino_5V&#45;&#45;Arduino_GND -->
<g id="edge10" class="edge">
<title>Arduino_5V&#45;&#45;Arduino_GND</title>
<path fill="none" stroke="black" d="M193.76,-965.7C192.99,-954.85 191.99,-940.92 191.22,-930.1"/>
</g>
<!-- VCC -->
<g id="node22" class="node">
<title>VCC</title>
<ellipse fill="none" stroke="black" cx="397" cy="-765" rx="30.59" ry="18"/>
<text text-anchor="middle" x="397" y="-761.3" font-family="Times,serif" font-size="14.00">VCC</text>
</g>
<!-- Arduino_5V&#45;&#45;VCC -->
<g id="edge30" class="edge">
<title>Arduino_5V&#45;&#45;VCC</title>
<path fill="none" stroke="purple" d="M254.72,-977.57C312.3,-968.81 396.48,-945.89 437,-886 453.69,-861.34 446.46,-847.24 437,-819 432.09,-804.35 421.36,-790.52 412.25,-780.66"/>
</g>
<!-- LCD_GND -->
<g id="node21" class="node">
<title>LCD_GND</title>
<ellipse fill="none" stroke="black" cx="370" cy="-837" rx="57.69" ry="18"/>
<text text-anchor="middle" x="370" y="-833.3" font-family="Times,serif" font-size="14.00">LCD_GND</text>
</g>
<!-- Arduino_GND&#45;&#45;LCD_GND -->
<g id="edge29" class="edge">
<title>Arduino_GND&#45;&#45;LCD_GND</title>
<path fill="none" stroke="purple" d="M239.21,-898.43C251.38,-894.85 264.29,-890.64 276,-886 299.51,-876.68 324.99,-863.46 343.48,-853.25"/>
</g>
<!-- OUT1&#45;&#45;OUT2 -->
<g id="edge11" class="edge">
<title>OUT1&#45;&#45;OUT2</title>
<path fill="none" stroke="black" d="M75.01,-520.41C80.98,-509.41 88.79,-495.03 94.8,-483.96"/>
</g>
<!-- OUT2&#45;&#45;OUT3 -->
<g id="edge12" class="edge">
<title>OUT2&#45;&#45;OUT3</title>
<path fill="none" stroke="black" d="M109.08,-448.05C112.34,-437.21 116.55,-423.18 119.82,-412.28"/>
</g>
<!-- OUT3&#45;&#45;OUT4 -->
<g id="edge13" class="edge">
<title>OUT3&#45;&#45;OUT4</title>
<path fill="none" stroke="black" d="M125,-375.7C125,-364.85 125,-350.92 125,-340.1"/>
</g>
<!-- OUT4&#45;&#45;OUT5 -->
<g id="edge14" class="edge">
<title>OUT4&#45;&#45;OUT5</title>
<path fill="none" stroke="black" d="M125,-303.7C125,-292.85 125,-278.92 125,-268.1"/>
</g>
<!-- OUT5&#45;&#45;OUT6 -->
<g id="edge15" class="edge">
<title>OUT5&#45;&#45;OUT6</title>
<path fill="none" stroke="black" d="M125,-231.7C125,-220.85 125,-206.92 125,-196.1"/>
</g>
<!-- OUT6&#45;&#45;OUT7 -->
<g id="edge16" class="edge">
<title>OUT6&#45;&#45;OUT7</title>
<path fill="none" stroke="black" d="M125,-159.7C125,-148.85 125,-134.92 125,-124.1"/>
</g>
<!-- OUT7&#45;&#45;OUT8 -->
<g id="edge17" class="edge">
<title>OUT7&#45;&#45;OUT8</title>
<path fill="none" stroke="black" d="M125,-87.7C125,-76.85 125,-62.92 125,-52.1"/>
</g>
<!-- LCD_GND&#45;&#45;VCC -->
<g id="edge18" class="edge">
<title>LCD_GND&#45;&#45;VCC</title>
<path fill="none" stroke="black" d="M376.54,-819.05C380.78,-808.05 386.29,-793.76 390.52,-782.79"/>
</g>
<!-- VCC&#45;&#45;SDA -->
<g id="edge19" class="edge">
<title>VCC&#45;&#45;SDA</title>
<path fill="none" stroke="black" d="M397,-746.7C397,-735.85 397,-721.92 397,-711.1"/>
</g>
<!-- SDA&#45;&#45;SCL -->
<g id="edge20" class="edge">
<title>SDA&#45;&#45;SCL</title>
<path fill="none" stroke="black" d="M397,-674.7C397,-663.85 397,-649.92 397,-639.1"/>
</g>
</g>
</svg>
